# xmcd
# Copyright (C) 1995-1998 Ti Kan
#
# Track frame offsets:
#       150
#       75138
#       179582
#
# Disc length: 3222 seconds
#
# Revision: 0
# Processed by: cddbd v1.5PL3 Copyright (c) Steve Scherf et al.
# Submitted via: CD-Transfer v1.0
#
DISCID=160c9403
DTITLE=Goldies Sendungen - 
DYEAR=1900
DGENRE=
TTITLE0=Soul Food März 01
TTITLE1=Soul Food März 02
TTITLE2=Soul Food März 03
EXTD=
EXTT0=
EXTT1=
EXTT2=
PLAYORDER=
